<?xml version="1.0" standalone="no"?><!DOCTYPE svg PUBLIC "-//W3C//DTD SVG 1.1//EN" "http://www.w3.org/Graphics/SVG/1.1/DTD/svg11.dtd"><svg t="1517374975559" class="icon" style="" viewBox="0 0 1024 1024" version="1.1" xmlns="http://www.w3.org/2000/svg" p-id="1910" xmlns:xlink="http://www.w3.org/1999/xlink" width="200" height="200"><defs><style type="text/css"></style></defs><path d="M348.5 400c-18.333 0-34 6.5-47 19.5S282 448 282 466c0 12.667 3 24 9 34s14.167 18 24.5 24 21.5 9 33.5 9c18 0 33.5-6.5 46.5-19.5s19.5-28.667 19.5-47-6.5-34-19.5-47S366.833 400 348.5 400zM699 400c-7.333 0-14.333 1-21 3s-12.667 5.167-18 9.5-10.167 9.167-14.5 14.5-7.5 11.5-9.5 18.5-3 13.833-3 20.5c0 18.667 6.5 34.5 19.5 47.5S681 533 699 533c12 0 23.167-3 33.5-9s18.5-14 24.5-24 9-21.333 9-34c0-18-6.5-33.5-19.5-46.5S717.667 400 699 400zM516 66c-88.667 0-170.5 17.833-245.5 53.5s-134.333 84.333-178 146S27 394 27 466c0 53.333 12.167 104 36.5 152s58.167 90.333 101.5 127l-49 211 263-105c45.333 10.667 91 16 137 16 88.667 0 170.667-17.833 246-53.5s134.833-84.333 178.5-146 65.5-128.667 65.5-201c0-72.333-21.833-139.333-65.5-201S837.333 155.167 762 119.5 604.667 66 516 66zM516 823c-14 0-28-0.667-42-2s-28.167-3-42.5-5-28.5-4.667-42.5-8c-1.333-0.667-3-1.167-5-1.5s-3.667-0.5-5-0.5c-6 0-11.667 1.333-17 4l-183 73 29-127c4.667-18 0-33-14-45-26.667-22-49.167-46.167-67.5-72.5s-32.167-54-41.5-83S71 496.667 71 466c0-64 19.833-123.333 59.5-178s93.833-98 162.5-130c68.667-32 143-48 223-48 34.667 0 68.667 3.167 102 9.5s64.667 15.333 94 27 56.833 25.667 82.5 42 48.667 34.833 69 55.5 37.833 42.667 52.5 66 26 48.333 34 75 12 53.667 12 81c0 48.667-11.833 95-35.5 139s-55.333 81.833-95 113.5-87 57-142 76S576.667 823 516 823z" p-id="1911" fill="#8a8a8a"></path></svg>