<?xml version="1.0" standalone="no"?><!DOCTYPE svg PUBLIC "-//W3C//DTD SVG 1.1//EN" "http://www.w3.org/Graphics/SVG/1.1/DTD/svg11.dtd"><svg t="1501475227931" class="icon" style="" viewBox="0 0 1378 1024" version="1.1" xmlns="http://www.w3.org/2000/svg" p-id="6679" id="mx_n_1501475227934" xmlns:xlink="http://www.w3.org/1999/xlink" width="43.0625" height="32"><defs><style type="text/css"></style></defs><path d="M1096.702316 917.515711c0 14.798694-2.531752 28.572631-7.565116 41.472511a101.028966 101.028966 0 0 1-54.010712 56.572604c-12.387501 5.425183-25.950459 8.167915-40.688873 8.167915H151.032617c-14.738414 0-28.663051-2.712592-41.834189-8.167915a111.216254 111.216254 0 0 1-34.871872-22.725489 109.40786 109.40786 0 0 1-23.840666-33.847115 100.185048 100.185048 0 0 1-8.680293-41.472511V334.790763c0-29.597388 10.247568-54.70393 30.772844-75.319625 20.525276-20.645836 45.511258-30.953684 74.927807-30.953684h843.465277c29.446688 0 54.462811 10.307848 74.897667 30.953684 20.585556 20.585556 30.833124 45.722238 30.833124 75.319625v158.837306h-263.724179c-29.446688 0-54.462811 10.127009-74.927807 30.381026-20.555416 20.223877-30.772844 45.209859-30.772845 74.716828 0.753498 20.284157 5.003224 38.217401 12.779321 53.769592 6.178681 13.201279 16.456389 25.287381 30.772844 36.198028 14.316455 10.880506 35.022571 16.365969 62.178627 16.365969h263.724179v212.456199H1096.702316zM938.678788 174.808141h-527.44836a7397.056355 7397.056355 0 0 0 118.510112-63.082824c32.2497-16.968767 64.37884-34.088234 96.4477-51.38854A9146.497075 9146.497075 0 0 1 700.513249 20.61238c27.125916-14.798694 51.32826-21.610313 72.637174-20.464996 21.278774 1.205596 39.272298 4.882665 54.010712 11.121626a147.384142 147.384142 0 0 1 44.185102 33.847114l67.332551 129.692017z m-157.963249 423.917782c0-14.828834 5.033364-27.246475 15.100093-37.373484a50.363783 50.363783 0 0 1 37.162505-15.190513c14.708274 0 27.065636 5.093644 37.132364 15.190513 10.096869 10.127009 15.130233 22.54465 15.130233 37.373484 0 14.798694-5.033364 27.457455-15.130233 37.976281a49.429446 49.429446 0 0 1-37.132364 15.763171c-14.738414 0-27.125916-5.304624-37.162505-15.763171a52.955815 52.955815 0 0 1-15.100093-37.976281z" fill="#10AEFF" p-id="6680"></path></svg>