<?xml version="1.0" standalone="no"?><!DOCTYPE svg PUBLIC "-//W3C//DTD SVG 1.1//EN" "http://www.w3.org/Graphics/SVG/1.1/DTD/svg11.dtd"><svg t="1501476977413" class="icon" style="" viewBox="0 0 1024 1024" version="1.1" xmlns="http://www.w3.org/2000/svg" p-id="22335" xmlns:xlink="http://www.w3.org/1999/xlink" width="32" height="32"><defs><style type="text/css"></style></defs><path d="M507.758 875.046q-51.619 44.927-100.368 0.956L95.772 566.296q-16.25-20.074-14.338-45.882t16.25-40.147q115.662-115.662 207.427-206.47l76.471-76.471q37.28-37.28 66.912-66.434t48.272-47.794 20.552-19.596q3.824-2.868 13.86-10.037t24.375-7.169h57.352q21.984 0 49.706 0.478t56.397 0.478q66.912 0.956 149.118 1.912 0 0.956 0.956 0.956 12.427 1.912 23.897 4.301t21.985 12.905q10.515 9.559 14.338 21.985t3.823 22.942v315.442q0 1.912-0.478 8.602t-1.433 9.559q-4.779 11.47-12.427 21.029zM727.61 191.59q0 25.808 18.639 43.971t44.449 18.162 43.971-18.162 18.162-43.971-18.162-43.971-43.971-18.162-44.449 18.162-18.639 43.971z" fill="#3A6EA5" p-id="22336"></path></svg>