<?xml version="1.0" standalone="no"?><!DOCTYPE svg PUBLIC "-//W3C//DTD SVG 1.1//EN" "http://www.w3.org/Graphics/SVG/1.1/DTD/svg11.dtd"><svg t="1501512281288" class="icon" style="" viewBox="0 0 1024 1024" version="1.1" xmlns="http://www.w3.org/2000/svg" p-id="2642" xmlns:xlink="http://www.w3.org/1999/xlink" width="128" height="128"><defs><style type="text/css"></style></defs><path d="M836.266 716.459c-79.36-41.984-167.424-72.192-167.424-120.832 0-67.584 104.96-130.56 104.96-295.424 0-58.368-28.16-263.168-248.832-263.168-218.624 0-248.832 207.36-248.832 263.168 0 162.816 104.96 227.84 104.96 295.424 0 48.64-88.576 79.36-167.424 120.832-71.168 39.424-145.408 67.584-145.408 146.432 0 55.808 53.76 97.792 104.96 97.792h698.368c51.2 0 104.96-41.984 104.96-97.792 1.536-78.848-70.656-109.056-140.288-146.432zM859.306 900.267h-670.208c-18.432 0-60.416-2.56-60.416-44.032 0-44.032 62.976-69.632 160.768-116.224 93.184-44.032 146.432-83.968 146.432-146.432 0-90.624-102.4-132.608-102.4-293.376 0-97.792 81.408-204.8 190.976-204.8s190.976 107.008 190.976 204.8c0 160.768-102.4 202.24-102.4 293.376 0 62.976 53.76 102.4 146.432 146.432 97.792 46.592 160.768 72.192 160.768 116.224s-41.984 44.032-60.928 44.032z" p-id="2643" fill="#ffffff"></path></svg>