<?xml version="1.0" standalone="no"?><!DOCTYPE svg PUBLIC "-//W3C//DTD SVG 1.1//EN" "http://www.w3.org/Graphics/SVG/1.1/DTD/svg11.dtd"><svg t="1501517570632" class="icon" style="" viewBox="0 0 1024 1024" version="1.1" xmlns="http://www.w3.org/2000/svg" p-id="4545" xmlns:xlink="http://www.w3.org/1999/xlink" width="128" height="128"><defs><style type="text/css"></style></defs><path d="M511.557 1013.267c-134.304 0-260.557-52.053-355.53-146.556C61.02 772.133 8.682 646.416 8.682 512.616c0-133.768 52.338-259.522 147.305-354.063C250.96 64.047 377.219 12 511.524 12s260.564 52.048 355.498 146.554c95.045 94.54 147.344 220.295 147.344 354.025 0.032 133.8-52.299 259.555-147.344 354.095-94.902 94.507-221.16 146.594-355.465 146.594z m0-929.461c-115.192 0-223.456 44.609-304.848 125.644-81.36 80.964-126.19 188.654-126.19 303.166 0 114.507 44.797 222.197 126.15 303.123 81.398 81.035 189.656 125.65 304.855 125.65 115.16 0 223.457-44.615 304.85-125.65 81.358-80.997 126.187-188.648 126.15-303.16 0-114.515-44.79-222.165-126.15-303.09-81.36-81.036-189.657-125.683-304.817-125.683zM763 476.695H547.479V261.173c0-19.824-16.092-35.917-35.922-35.917-19.824 0-35.916 16.093-35.916 35.917v215.522H260.119c-19.824 0-35.916 16.09-35.916 35.921 0 19.825 16.092 35.917 35.916 35.917h215.522v215.52c0 19.865 16.092 35.918 35.916 35.918 19.83 0 35.922-16.053 35.922-35.917v-215.52h215.522c19.862 0 35.916-16.093 35.916-35.918 0-19.83-16.054-35.921-35.916-35.921z m0 0" p-id="4546" fill="#515151"></path></svg>