<?xml version="1.0" standalone="no"?><!DOCTYPE svg PUBLIC "-//W3C//DTD SVG 1.1//EN" "http://www.w3.org/Graphics/SVG/1.1/DTD/svg11.dtd"><svg t="1501500153836" class="icon" style="" viewBox="0 0 1024 1024" version="1.1" xmlns="http://www.w3.org/2000/svg" p-id="4748" xmlns:xlink="http://www.w3.org/1999/xlink" width="32" height="32"><defs><style type="text/css"></style></defs><path d="M359.489362 754.361518 359.489362 802.649724 359.489362 802.649724 664.510638 720.919519 664.510638 708.009317 664.510638 708.009317C792.991049 649.881439 882.382979 520.571512 882.382979 370.382979 882.382979 165.826109 716.55687 0 512 0 307.44313 0 141.617021 165.826109 141.617021 370.382979 141.617021 520.571512 231.008951 649.881439 359.489362 708.009317L359.489362 709.662916 487.344422 675.404255 381.276596 675.404255 381.276596 675.404255 381.276596 669.998165C265.854054 619.567912 185.191489 504.395321 185.191489 370.382979 185.191489 189.891623 331.508644 43.574468 512 43.574468 692.491356 43.574468 838.808511 189.891623 838.808511 370.382979 838.808511 502.20081 760.766085 615.790858 648.365522 667.468833L647.617022 673.438829 642.723404 674.813237 642.723404 675.404255 640.619065 675.404255 359.489362 754.361518 359.489362 754.361518ZM360.536482 889.518084C359.844958 883.641937 359.489362 877.665254 359.489362 871.60795L359.489362 847.761332 359.489362 847.761332 664.510638 766.031127 664.510638 808.068455 360.536482 889.518084 360.536482 889.518084ZM371.807221 931.609709C395.14312 985.85966 449.128807 1024 512 1024 596.057909 1024 664.510638 955.771756 664.510638 871.60795L664.510638 853.180063 371.807221 931.609709 371.807221 931.609709ZM381.276596 325.601064C382.309315 300.109787 384.811431 286.233818 390.472482 271.580609 396.133535 256.9274 405.673311 243.548585 419.092101 231.443759 432.510889 219.338935 447.501968 210.419725 464.065784 204.685859 480.629603 198.951995 497.717335 196.085106 515.329497 196.085106 552.650501 196.085106 583.156823 206.809395 606.849373 228.258295 630.541922 249.707195 642.723404 271.580609 642.723404 305.029255 642.723404 340.702127 638.823705 348.562595 631.694974 361.729246 624.566241 374.895897 609.051001 392.734319 585.148782 415.245044 559.14988 440.304156 543.215307 458.779663 537.344586 470.672123 531.473866 482.564582 533.291696 496.062719 533.291696 523.670212L489.911096 523.670212C489.911096 501.56383 489.95969 483.732611 497.08842 466.531019 504.217153 449.329427 519.837228 428.199391 543.949114 403.140281 568.061 378.081171 583.15691 360.348931 589.2373 349.943028 595.317688 339.537127 599.088603 331.859042 599.088603 305.029255 599.088603 281.244336 593.528113 269.449469 579.886416 258.494682 566.244716 247.539893 537.83121 239.063829 511.832308 239.063829 455.641129 239.063829 423.769489 281.74468 423.769489 325.601064L381.276596 325.601064ZM533.360904 588.255319 489.750057 588.255319 489.750057 544.680851 533.360904 544.680851 533.360904 588.255319Z" p-id="4749" fill="#e6e6e6"></path></svg>