<?xml version="1.0" standalone="no"?><!DOCTYPE svg PUBLIC "-//W3C//DTD SVG 1.1//EN" "http://www.w3.org/Graphics/SVG/1.1/DTD/svg11.dtd"><svg t="1501475652319" class="icon" style="" viewBox="0 0 1531 1024" version="1.1" xmlns="http://www.w3.org/2000/svg" p-id="10765" xmlns:xlink="http://www.w3.org/1999/xlink" width="47.84375" height="32"><defs><style type="text/css"></style></defs><path d="M 1196.29 622 l -139.714 44.8571 l 63.5714 127.143 l -153.286 153.571 l -126.714 -63.7143 l -44.7143 140.143 H 578.857 l -44.7143 -140.143 l -126.714 63.7143 l -153.286 -153.714 l 63.5714 -127.143 L 172.857 622 V 404.571 l 144.857 -44.8571 l -63.5714 -127.143 L 407.429 79 l 126.714 63.7143 L 578.857 0 h 216.714 l 44.7143 142.714 l 126.714 -63.7143 L 1120.14 232.714 l -63.5714 127.143 l 139.714 44.8571 v 217.286 Z M 688.143 236.857 c -150.143 0 -271.857 122 -271.857 272.571 s 121.714 272.571 271.857 272.571 c 150.143 0 271.714 -122 271.714 -272.571 S 838.143 236.857 688.143 236.857 Z" fill="#1296db" p-id="10766"></path></svg>