<?xml version="1.0" standalone="no"?><!DOCTYPE svg PUBLIC "-//W3C//DTD SVG 1.1//EN" "http://www.w3.org/Graphics/SVG/1.1/DTD/svg11.dtd"><svg t="1501465871408" class="icon" style="" viewBox="0 0 1271 1024" version="1.1" xmlns="http://www.w3.org/2000/svg" p-id="2333" xmlns:xlink="http://www.w3.org/1999/xlink" width="39.71875" height="32"><defs><style type="text/css"></style></defs><path d="M1200.64 1024h-1129.984c-38.912 0-70.656-31.744-70.656-70.656v-741.376c0-38.912 31.744-70.656 70.656-70.656h229.888l123.392-123.392 15.36-17.92h408.576l141.312 141.312h211.968c38.912 0 70.656 31.744 70.656 70.656 0 0 0 0 0 0v741.376c-0.512 38.912-32.256 70.656-71.168 70.656v0 0zM305.664 196.096h-221.184c-20.48 0-36.864 16.384-36.864 36.864v0 700.928c0 20.48 16.384 36.864 36.864 36.864 0 0 0 0 0 0h1106.944c20.48 0 36.864-16.384 36.864-36.864v-700.416c0-20.48-16.384-36.864-36.864-36.864h-215.040l-147.968-147.968h-356.352l-147.456 147.456M638.976 864.256c-156.16 0-282.624-126.464-282.624-282.624 0-156.16 126.464-282.624 282.624-282.624s282.624 126.464 282.624 282.624c0 156.16-126.464 282.624-282.624 282.624zM638.976 346.624c-129.536 0-235.008 104.96-235.008 235.008s104.96 235.008 235.008 235.008 235.008-104.96 235.008-235.008-104.96-235.008-235.008-235.008z" fill="" p-id="2334"></path></svg>