<?xml version="1.0" standalone="no"?><!DOCTYPE svg PUBLIC "-//W3C//DTD SVG 1.1//EN" "http://www.w3.org/Graphics/SVG/1.1/DTD/svg11.dtd"><svg t="1501507472392" class="icon" style="" viewBox="0 0 1024 1024" version="1.1" xmlns="http://www.w3.org/2000/svg" p-id="7135" xmlns:xlink="http://www.w3.org/1999/xlink" width="128" height="128"><defs><style type="text/css"></style></defs><path d="M797.563904 275.698688c-43.159552 0-92.612608-30.686208-110.294016-51.85024l-47.911936-57.271296c-12.10368-14.4384-33.27488-31.680512-65.554432-31.680512L450.891776 134.89664c-33.120256 0-51.095552 13.513728-69.321728 35.324928l-45.402112 54.329344c-17.910784 21.341184-68.048896 51.1488-109.03552 51.1488-13.02016 0-23.535616-10.532864-23.535616-23.606272 0-13.02016 10.515456-23.583744 23.535616-23.583744 25.532416 0 63.08864-22.556672 72.897536-34.328576l45.407232-54.269952c21.571584-25.814016 50.972672-52.170752 105.454592-52.170752l122.912768 0c53.112832 0 86.496256 30.40256 101.687296 48.574464l46.670848 55.800832c11.24864 13.437952 47.94368 36.395008 75.40224 36.395008 13.02016 0 23.535616 10.563584 23.535616 23.583744C821.100544 265.166848 810.584064 275.698688 797.563904 275.698688L797.563904 275.698688 797.563904 275.698688zM865.276928 936.260608 158.686208 936.260608C106.778624 936.260608 64.512 893.97248 64.512 841.961472L64.512 322.8928c0-52.064256 42.266624-94.384128 94.174208-94.384128l66.202624 0c13.02016 0 23.535616 10.569728 23.535616 23.589888 0 13.068288-10.515456 23.600128-23.535616 23.600128l-66.202624 0c-25.954304 0-47.071232 21.153792-47.071232 47.194112l0 519.068672c0 25.987072 21.116928 47.141888 47.071232 47.141888l706.589696 0c25.93792 0 47.104-21.154816 47.104-47.141888L912.379904 322.8928c0-26.04032-21.16608-47.194112-47.104-47.194112l-66.465792 0c-13.02016 0-23.573504-10.532864-23.573504-23.600128 0-13.02016 10.55232-23.589888 23.573504-23.589888l66.465792 0c51.961856 0 94.211072 42.319872 94.211072 94.384128l0 519.068672C959.488 893.97248 917.23776 936.260608 865.276928 936.260608L865.276928 936.260608 865.276928 936.260608zM676.599808 582.38464c-13.02016 0-23.535616-10.53184-23.535616-23.550976 0-77.928448-63.311872-141.310976-141.079552-141.310976-77.756416 0-141.084672 63.383552-141.084672 141.310976 0 77.912064 63.328256 141.309952 141.084672 141.309952 26.720256 0 52.973568-7.834624 75.926528-22.641664 10.971136-7.079936 25.483264-3.820544 32.54272 7.133184 7.026688 10.985472 3.835904 25.58464-7.059456 32.610304-30.614528 19.693568-65.660928 30.086144-101.409792 30.086144-103.796736 0-188.188672-84.55168-188.188672-188.49792 0-103.973888 84.391936-188.558336 188.188672-188.558336 103.791616 0 188.183552 84.584448 188.183552 188.558336C700.167168 571.8528 689.619968 582.38464 676.599808 582.38464L676.599808 582.38464 676.599808 582.38464zM676.599808 582.38464" p-id="7136" fill="#ffffff"></path></svg>