<?xml version="1.0" standalone="no"?><!DOCTYPE svg PUBLIC "-//W3C//DTD SVG 1.1//EN" "http://www.w3.org/Graphics/SVG/1.1/DTD/svg11.dtd"><svg t="1501517194380" class="icon" style="" viewBox="0 0 1024 1024" version="1.1" xmlns="http://www.w3.org/2000/svg" p-id="3086" xmlns:xlink="http://www.w3.org/1999/xlink" width="128" height="128"><defs><style type="text/css"></style></defs><path d="M329.137027 420.574344a54.848398 54.848398 0 1 0 0.04664-109.673476 54.848398 54.848398 0 0 0-0.04664 109.673476z m365.725946 0a54.848398 54.848398 0 1 0 0-109.696796 54.848398 54.848398 0 0 0 0 109.696796zM219.440231 597.99212c0 144.396803 130.987862 261.439366 292.571429 261.439366 161.583567 0 292.571429-117.042563 292.571429-261.439366H219.440231zM512.01166 1023.97668c282.753752 0 511.98834-229.257908 511.98834-511.98834C1024 229.234588 794.765412 0 512.01166 0 229.234588 0 0 229.234588 0 512.01166s229.234588 511.98834 512.01166 511.98834z m0-36.542279c-262.582041 0-475.422741-212.86402-475.422742-475.446061 0-262.558721 212.840701-475.446061 475.422742-475.446061s475.422741 212.86402 475.422741 475.446061-212.86402 475.446061-475.422741 475.446061z" p-id="3087" fill="#515151"></path></svg>