<?xml version="1.0" standalone="no"?><!DOCTYPE svg PUBLIC "-//W3C//DTD SVG 1.1//EN" "http://www.w3.org/Graphics/SVG/1.1/DTD/svg11.dtd"><svg t="1501512953515" class="icon" style="" viewBox="0 0 1065 1024" version="1.1" xmlns="http://www.w3.org/2000/svg" p-id="3547" xmlns:xlink="http://www.w3.org/1999/xlink" width="133.125" height="128"><defs><style type="text/css"></style></defs><path d="M532.490132 0c-282.181825 0-510.988155 229.185776-510.988155 512.000013 0 282.814236 228.80633 512.000013 510.988155 512.000013 282.181825 0 510.988155-229.185776 510.988155-512.000013C1043.478287 229.185776 814.671957 0 532.490132 0L532.490132 0zM533.249025 997.691724c-267.762852 0-484.806336-217.42293-484.806336-485.691712C48.442689 243.731231 265.486173 26.181819 533.249025 26.181819c267.762852 0 484.806336 217.42293 484.806336 485.691712C1018.055361 780.268794 801.011877 997.691724 533.249025 997.691724L533.249025 997.691724zM533.249025 997.691724" p-id="3548"></path><path d="M573.596852 220.964432l-2.403162 2.782609c-12.142293 14.29249-11.130435 35.415021 2.023715 48.695653 63.36759 63.747037 102.577078 151.652178 102.577078 248.79052 0 95.620556-38.071147 182.260874-99.794469 245.881429-12.901186 13.280633-13.786562 34.150198-1.897233 48.316207l0 0c13.660079 16.189724 38.197629 17.201581 52.996049 2.150198 75.636366-76.901188 122.181821-182.513839 122.181821-298.877478 0-116.743086-46.924902-222.608701-122.940714-299.636371C611.667999 204.015815 587.256932 205.027673 573.596852 220.964432L573.596852 220.964432zM573.596852 220.964432" p-id="3549"></path><path d="M497.58104 523.636377c0 47.051385-14.166008 90.814231-38.450594 127.24111-9.739131 14.671937-6.956522 34.403163 6.450593 45.786562l0 0c15.810277 13.407115 39.96838 10.24506 51.478262-6.956522 32.000001-47.683796 50.719369-105.106722 50.719369-166.956526 0-66.276681-21.501977-127.494074-57.928855-177.075103-12.521739-16.948617-37.185772-18.972332-52.237155-4.300395l-0.758893 0.758893c-12.521739 12.142293-14.166008 31.747036-3.920949 45.786562C481.138352 425.865623 497.58104 472.790526 497.58104 523.636377L497.58104 523.636377zM497.58104 523.636377" p-id="3550"></path><path d="M311.019771 521.486179c-4.55336 15.177866-1.391304 32.379447 8.094862 45.154151 9.486166 12.648222 25.169961 20.490119 40.980238 20.490119 15.810277 0 31.494072-7.841897 40.980238-20.490119 9.486166-12.648222 12.521739-29.976285 8.094862-45.154151 4.55336-15.177866 1.391304-32.379447-8.094862-45.154151-9.486166-12.648222-25.169961-20.490119-40.980238-20.490119-15.810277 0-31.494072 7.841897-40.980238 20.490119C309.628466 488.980249 306.592893 506.308313 311.019771 521.486179L311.019771 521.486179zM311.019771 521.486179" p-id="3551"></path></svg>